# This file uses centimeters as units for non-parametric coordinates.

mtllib Relic Pedestal.mtl
g default
v -0.500000 0.000000 0.500000
v 0.500000 0.000000 0.500000
v -0.500000 0.570564 0.500000
v 0.500000 0.570564 0.500000
v -0.500000 0.570564 -0.500000
v 0.500000 0.570564 -0.500000
v -0.500000 0.000000 -0.500000
v 0.500000 0.000000 -0.500000
v -0.378226 0.631310 0.378226
v 0.378226 0.631310 0.378226
v 0.378226 0.631310 -0.378226
v -0.378226 0.631310 -0.378226
v -0.409526 1.138289 0.409526
v 0.409526 1.138289 0.409526
v 0.409526 1.138289 -0.409526
v -0.409526 1.138289 -0.409526
v -0.473350 1.148780 0.473350
v 0.473350 1.148780 0.473350
v 0.473350 1.148780 -0.473350
v -0.473350 1.148780 -0.473350
v -0.490339 1.222373 0.490339
v 0.490339 1.222373 0.490339
v 0.490339 1.222373 -0.490339
v -0.490339 1.222373 -0.490339
vt 0.991438 0.473483
vt 0.656424 0.009580
vt 0.656410 0.200460
vt 0.321864 0.200435
vt 0.315656 0.991469
vt 0.659622 0.462824
vt 0.325544 0.926676
vt 0.660090 0.926701
vt 0.656878 0.664337
vt 0.322332 0.664312
vt 0.990970 0.009605
vt 0.656892 0.473457
vt 0.697145 0.245990
vt 0.362599 0.245965
vt 0.363067 0.709842
vt 0.697613 0.709867
vt 0.686661 0.415920
vt 0.352115 0.415894
vt 0.352584 0.879772
vt 0.687129 0.879797
vt 0.665308 0.437557
vt 0.330762 0.437531
vt 0.331230 0.901408
vt 0.665776 0.901434
vt 0.325076 0.462799
vt 0.988172 0.926726
vt 0.653626 0.926700
vt 0.647944 0.901432
vt 0.653158 0.462823
vt 0.005247 0.991446
vt 0.987704 0.462849
vt 0.982022 0.437580
vt 0.647476 0.437555
vt 0.982490 0.901458
vt 0.626594 0.879792
vt 0.960672 0.415940
vt 0.626126 0.415915
vt 0.961140 0.879817
vt 0.616135 0.709861
vt 0.950213 0.246009
vt 0.615667 0.245984
vt 0.950682 0.709886
vt 0.990956 0.200485
vt 0.322346 0.473432
vt 0.315679 0.681060
vt 0.005271 0.681037
vt 0.321878 0.009555
vt 0.991424 0.664362
vn 0.000000 0.000000 1.000000
vn 0.000000 0.000000 1.000000
vn 0.000000 0.000000 1.000000
vn 0.000000 0.000000 1.000000
vn 0.000000 1.000000 0.000000
vn 0.000000 1.000000 0.000000
vn 0.000000 1.000000 0.000000
vn 0.000000 1.000000 0.000000
vn 0.000000 0.000000 -1.000000
vn 0.000000 0.000000 -1.000000
vn 0.000000 0.000000 -1.000000
vn 0.000000 0.000000 -1.000000
vn 1.000000 0.000000 0.000000
vn 1.000000 0.000000 0.000000
vn 1.000000 0.000000 0.000000
vn 1.000000 0.000000 0.000000
vn -1.000000 0.000000 0.000000
vn -1.000000 0.000000 0.000000
vn -1.000000 0.000000 0.000000
vn -1.000000 0.000000 0.000000
vn 0.000000 0.894841 0.446384
vn 0.000000 0.894841 0.446384
vn 0.000000 0.894841 0.446384
vn 0.000000 0.894841 0.446384
vn 0.446385 0.894841 0.000000
vn 0.446385 0.894841 0.000000
vn 0.446385 0.894841 0.000000
vn 0.446385 0.894841 0.000000
vn 0.000000 0.894841 -0.446384
vn 0.000000 0.894841 -0.446384
vn 0.000000 0.894841 -0.446384
vn 0.000000 0.894841 -0.446384
vn -0.446385 0.894841 0.000000
vn -0.446385 0.894841 0.000000
vn -0.446385 0.894841 0.000000
vn -0.446385 0.894841 0.000000
vn 0.000000 -0.061621 0.998100
vn 0.000000 -0.061621 0.998100
vn 0.000000 -0.061621 0.998100
vn 0.000000 -0.061621 0.998100
vn 0.998100 -0.061621 0.000000
vn 0.998100 -0.061621 0.000000
vn 0.998100 -0.061621 0.000000
vn 0.998100 -0.061621 0.000000
vn 0.000000 -0.061621 -0.998100
vn 0.000000 -0.061621 -0.998100
vn 0.000000 -0.061621 -0.998100
vn 0.000000 -0.061621 -0.998100
vn -0.998100 -0.061621 0.000000
vn -0.998100 -0.061621 0.000000
vn -0.998100 -0.061621 0.000000
vn -0.998100 -0.061621 0.000000
vn 0.000000 -0.986758 0.162201
vn 0.000000 -0.986758 0.162201
vn 0.000000 -0.986758 0.162201
vn 0.000000 -0.986758 0.162201
vn 0.162200 -0.986758 0.000000
vn 0.162200 -0.986758 0.000000
vn 0.162200 -0.986758 0.000000
vn 0.162200 -0.986758 0.000000
vn 0.000000 -0.986758 -0.162201
vn 0.000000 -0.986758 -0.162201
vn 0.000000 -0.986758 -0.162201
vn 0.000000 -0.986758 -0.162201
vn -0.162200 -0.986758 0.000000
vn -0.162200 -0.986758 0.000000
vn -0.162200 -0.986758 0.000000
vn -0.162200 -0.986758 0.000000
vn 0.000000 -0.224938 0.974373
vn 0.000000 -0.224938 0.974373
vn 0.000000 -0.224938 0.974373
vn 0.000000 -0.224938 0.974373
vn 0.974373 -0.224938 0.000000
vn 0.974373 -0.224938 0.000000
vn 0.974373 -0.224938 0.000000
vn 0.974373 -0.224938 0.000000
vn 0.000000 -0.224938 -0.974373
vn 0.000000 -0.224938 -0.974373
vn 0.000000 -0.224938 -0.974373
vn 0.000000 -0.224938 -0.974373
vn -0.974373 -0.224938 0.000000
vn -0.974373 -0.224938 0.000000
vn -0.974373 -0.224938 0.000000
vn -0.974373 -0.224938 0.000000
s off
g pCube1
usemtl initialShadingGroup
f 1/47/1 2/2/2 4/3/3 3/4/4
f 21/5/5 22/30/6 23/46/7 24/45/8
f 5/9/9 6/10/10 8/44/11 7/12/12
f 2/2/13 8/11/14 6/43/15 4/3/16
f 7/12/17 1/1/18 3/48/19 5/9/20
f 3/4/21 4/3/22 10/41/23 9/14/24
f 4/3/25 6/43/26 11/40/27 10/13/28
f 6/10/29 5/9/30 12/39/31 11/15/32
f 5/9/33 3/48/34 9/42/35 12/16/36
f 9/14/37 10/41/38 14/37/39 13/18/40
f 10/13/41 11/40/42 15/36/43 14/17/44
f 11/15/45 12/39/46 16/35/47 15/19/48
f 12/16/49 9/42/50 13/38/51 16/20/52
f 13/18/53 14/37/54 18/33/55 17/22/56
f 14/17/57 15/36/58 19/32/59 18/21/60
f 15/19/61 16/35/62 20/28/63 19/23/64
f 16/20/65 13/38/66 17/34/67 20/24/68
f 17/22/69 18/33/70 22/29/71 21/25/72
f 18/21/73 19/32/74 23/31/75 22/6/76
f 19/23/77 20/28/78 24/27/79 23/7/80
f 20/24/81 17/34/82 21/26/83 24/8/84
